<svg width="163" height="59" viewBox="0 0 163 59" fill="none" xmlns="http://www.w3.org/2000/svg">
<path d="M140.723 59C138.392 59 136.301 58.2123 134.447 56.6368C132.646 55.0089 131.243 52.777 130.237 49.9412C129.231 47.0529 128.728 43.7183 128.728 39.9372C128.728 35.526 129.416 31.6662 130.793 28.3578C132.17 24.9969 134.076 22.3712 136.512 20.4806C138.949 18.5901 141.702 17.6449 144.774 17.6449C145.515 17.6449 146.257 17.7236 146.998 17.8812C147.74 17.9862 148.455 18.1963 149.143 18.5113C149.99 18.9315 150.414 18.7477 150.414 17.9599V7.87716C150.414 6.9319 150.255 6.27547 149.937 5.90787C149.673 5.54027 149.17 5.33021 148.428 5.2777L146.363 5.04138C145.78 4.93636 145.489 4.62127 145.489 4.09613C145.489 3.57098 145.78 3.25589 146.363 3.15086C148.057 2.83578 149.408 2.46818 150.414 2.04806C151.473 1.62794 152.347 1.20783 153.035 0.787716C153.883 0.262572 154.518 0 154.942 0C155.525 0 155.816 0.420115 155.816 1.26034V50.8077C155.816 53.0133 156.372 54.1161 157.484 54.1161C158.172 54.1161 158.808 53.6698 159.39 52.777C159.973 51.8318 160.264 50.2563 160.264 48.0507C160.264 47.2105 160.609 46.7904 161.297 46.7904C161.933 46.7904 162.25 47.2367 162.25 48.1295C162.25 51.963 161.588 54.7463 160.264 56.4793C158.94 58.1597 157.431 59 155.736 59C154.201 59 153.035 58.5011 152.241 57.5033C151.447 56.453 150.917 55.2189 150.652 53.8011C150.599 53.3809 150.414 53.1709 150.096 53.1709C149.779 53.1184 149.487 53.3022 149.222 53.7223C147.74 55.7703 146.389 57.162 145.171 57.8972C143.953 58.6324 142.47 59 140.723 59ZM142.47 55.3765C143.847 55.3765 145.118 54.9301 146.283 54.0374C147.501 53.0921 148.481 51.8318 149.222 50.2563C150.017 48.6809 150.414 46.9217 150.414 44.9786V27.255C150.414 24.8918 149.858 23.0276 148.746 21.6622C147.687 20.2968 146.283 19.6141 144.536 19.6141C141.57 19.6141 139.16 21.3471 137.307 24.8131C135.506 28.2265 134.606 32.9003 134.606 38.8344C134.606 44.2434 135.294 48.3658 136.671 51.2016C138.101 53.9848 140.034 55.3765 142.47 55.3765Z" fill="black"/>
<path d="M112.981 23.0707C115.158 19.3113 117.787 17.4316 120.867 17.4316C122.62 17.4316 123.921 17.9687 124.771 19.0428C125.62 20.0632 126.045 21.2179 126.045 22.5068C126.045 23.5272 125.78 24.3597 125.248 25.0041C124.771 25.6486 124.001 25.9708 122.938 25.9708C122.089 25.9708 121.451 25.7829 121.027 25.4069C120.655 24.9773 120.336 24.4939 120.071 23.9569C119.858 23.4198 119.593 22.9633 119.274 22.5874C118.955 22.1577 118.424 21.9429 117.681 21.9429C116.725 21.9429 115.822 22.5337 114.973 23.7152C114.123 24.843 113.406 26.3736 112.822 28.307C112.291 30.2404 112.025 32.4424 112.025 34.9128V53.6024C112.025 54.7302 112.185 55.5358 112.503 56.0191C112.875 56.5025 113.618 56.7979 114.734 56.9053L116.884 57.147C117.469 57.2544 117.761 57.5498 117.761 58.0331C117.761 58.6776 117.362 58.9998 116.566 58.9998H103.104C102.307 58.9998 101.909 58.7044 101.909 58.1137C101.909 57.6303 102.254 57.3081 102.944 57.147L103.9 56.9858C105.015 56.771 105.732 56.4488 106.051 56.0191C106.423 55.5358 106.609 54.7302 106.609 53.6024V26.5347C106.609 25.568 106.449 24.9236 106.131 24.6013C105.865 24.2254 105.361 23.9837 104.617 23.8763L102.944 23.6346C102.254 23.5809 101.909 23.2856 101.909 22.7485C101.909 22.3189 102.334 22.0235 103.183 21.8624C104.83 21.5938 106.077 21.1642 106.927 20.5734C107.83 19.9827 108.759 19.2576 109.715 18.3983C110.193 17.915 110.591 17.6733 110.91 17.6733C111.388 17.6733 111.627 17.9956 111.627 18.64V22.9902C111.627 23.3661 111.786 23.6078 112.105 23.7152C112.424 23.7689 112.716 23.5541 112.981 23.0707Z" fill="black"/>
<path d="M78.7224 58.9998C76.49 58.9998 74.6562 58.3136 73.2211 56.9412C71.7859 55.516 71.0684 53.6421 71.0684 51.3196C71.0684 49.0498 71.7859 46.912 73.2211 44.9062C74.6562 42.8476 76.6229 41.0001 79.1211 39.3638C81.6193 37.7275 84.4629 36.4078 87.6521 35.4049C88.3431 35.1938 88.6886 34.7451 88.6886 34.0589V26.8538C88.6886 24.3201 88.29 22.5254 87.4927 21.4697C86.6954 20.3612 85.6058 19.807 84.2238 19.807C82.8949 19.807 81.6724 20.414 80.5562 21.628C79.4931 22.7893 78.7224 24.7688 78.244 27.5664C77.9783 29.2555 77.3936 30.4959 76.49 31.2877C75.6395 32.0267 74.7625 32.3962 73.8589 32.3962C72.3706 32.3962 71.6265 31.6572 71.6265 30.1792C71.6265 28.6484 72.0517 27.1441 72.9021 25.6661C73.8057 24.1353 74.9751 22.7629 76.4103 21.5489C77.8454 20.282 79.4134 19.2791 81.1143 18.5401C82.8152 17.8011 84.5161 17.4316 86.217 17.4316C91.4792 17.4316 94.1103 20.4668 94.1103 26.537V50.7654C94.1103 52.9823 94.6684 54.0908 95.7846 54.0908C96.4756 54.0908 97.1134 53.6421 97.6981 52.7448C98.2828 51.7947 98.5751 50.2111 98.5751 47.9941C98.5751 47.1496 98.9206 46.7273 99.6116 46.7273C100.249 46.7273 100.568 47.176 100.568 48.0733C100.568 51.9266 99.8774 54.7242 98.4954 56.4661C97.1666 58.1553 95.6517 58.9998 93.9508 58.9998C92.6751 58.9998 91.6652 58.4984 90.921 57.4954C90.1769 56.4397 89.672 55.1993 89.4062 53.7741C89.3531 53.2463 89.1138 52.9823 88.6886 52.9823C88.3165 52.9295 87.9445 53.1671 87.5724 53.6949C86.2967 55.4368 84.9945 56.7564 83.6657 57.6538C82.3368 58.5511 80.6891 58.9998 78.7224 58.9998ZM80.8751 55.3576C82.2571 55.3576 83.5328 54.8826 84.7022 53.9325C85.8715 52.9295 86.8283 51.6099 87.5724 49.9736C88.3166 48.3372 88.6886 46.4898 88.6886 44.4312V38.6512C88.6886 37.6483 88.1305 37.358 87.0143 37.7803C83.772 38.9415 81.2472 40.5515 79.44 42.6101C77.6859 44.6159 76.8089 47.044 76.8089 49.8944C76.8089 53.5366 78.1643 55.3576 80.8751 55.3576Z" fill="black"/>
<path d="M52.9653 58.9998C50.3058 58.9998 47.9071 58.1025 45.7691 56.3078C43.6832 54.4603 42.0145 51.953 40.763 48.7859C39.5115 45.6188 38.8858 42.0822 38.8858 38.1761C38.8858 34.27 39.5115 30.7598 40.763 27.6455C42.0145 24.5312 43.7093 22.0503 45.8473 20.2028C47.9853 18.3554 50.358 17.4316 52.9653 17.4316C55.6248 17.4316 57.9974 18.3554 60.0833 20.2028C62.2213 22.0503 63.9161 24.5312 65.1676 27.6455C66.4191 30.7598 67.0448 34.27 67.0448 38.1761C67.0448 42.0822 66.4191 45.6188 65.1676 48.7859C63.9682 51.953 62.2995 54.4603 60.1615 56.3078C58.0235 58.1025 55.6248 58.9998 52.9653 58.9998ZM52.9653 57.0204C58.3885 57.0204 61.1002 50.739 61.1002 38.1761C61.1002 25.6661 58.3885 19.4111 52.9653 19.4111C47.5421 19.4111 44.8305 25.6661 44.8305 38.1761C44.8305 50.739 47.5421 57.0204 52.9653 57.0204Z" fill="black"/>
<path d="M1.21336 58.9996C0.404455 58.9996 1.52588e-05 58.706 1.52588e-05 58.1187C1.52588e-05 57.6382 0.35054 57.3179 1.05159 57.1577L2.91206 56.8374C4.04452 56.6239 4.77253 56.3302 5.09609 55.9565C5.47357 55.5828 5.66232 54.8354 5.66232 53.7142V6.62599C5.66232 5.50484 5.47357 4.75741 5.09609 4.38369C4.77253 4.00998 4.04452 3.71634 2.91206 3.50279L1.05159 3.18246C0.35054 3.0223 1.52588e-05 2.70197 1.52588e-05 2.22148C1.52588e-05 1.63421 0.404455 1.34058 1.21336 1.34058H17.634C20.3304 1.34058 22.7301 1.90115 24.8333 3.0223C26.9364 4.14345 28.5812 5.66501 29.7676 7.58697C31.0079 9.50894 31.628 11.6979 31.628 14.1537C31.628 16.5562 30.9 18.7985 29.444 20.8806C28.0419 22.9093 25.9927 24.6177 23.2963 26.0058C22.9728 26.166 22.811 26.3796 22.811 26.6465C22.811 26.9134 22.9998 27.1003 23.3773 27.2071C27.0443 28.435 29.8754 30.4104 31.8707 33.1331C33.866 35.8025 34.8636 38.9791 34.8636 42.6629C34.8636 45.8128 34.1356 48.6424 32.6796 51.1516C31.2236 53.6074 29.2013 55.5294 26.6129 56.9175C24.0783 58.3056 21.1932 58.9996 17.9576 58.9996H1.21336ZM15.6927 26.0859C18.5508 26.0859 20.9236 24.9915 22.811 22.8026C24.7524 20.5603 25.723 17.7841 25.723 14.474C25.723 11.164 24.8063 8.49457 22.9728 6.46583C21.1393 4.38369 18.7126 3.34262 15.6927 3.34262C12.8346 3.34262 11.4055 4.41039 11.4055 6.54591V21.6814C11.4055 23.2297 11.7291 24.3508 12.3762 25.0449C13.0772 25.7389 14.1827 26.0859 15.6927 26.0859ZM16.906 56.9976C20.4113 56.9976 23.2694 55.6896 25.4804 53.0736C27.6914 50.4042 28.7969 46.8539 28.7969 42.4227C28.7969 37.9915 27.6644 34.4945 25.3995 31.9319C23.1885 29.3693 20.1956 28.088 16.4207 28.088C13.0772 28.088 11.4055 29.396 11.4055 32.012V51.4719C11.4055 55.1557 13.239 56.9976 16.906 56.9976Z" fill="black"/>
</svg>
