<svg width="142" height="44" viewBox="0 0 142 44" fill="none" xmlns="http://www.w3.org/2000/svg">
<path d="M137.763 6.33623C137.16 6.33623 136.642 6.10799 136.212 5.65152C135.809 5.19504 135.608 4.61684 135.608 3.91691C135.608 3.21698 135.809 2.654 136.212 2.22795C136.642 1.77148 137.16 1.54324 137.763 1.54324C138.366 1.54324 138.869 1.77148 139.271 2.22795C139.673 2.654 139.874 3.21698 139.874 3.91691C139.874 4.61684 139.673 5.19504 139.271 5.65152C138.869 6.10799 138.366 6.33623 137.763 6.33623ZM134.143 33.953C133.713 33.953 133.497 33.7856 133.497 33.4508C133.497 33.177 133.684 32.9944 134.057 32.9031L134.574 32.8118C135.292 32.6901 135.752 32.5075 135.953 32.264C136.154 31.9901 136.255 31.5336 136.255 30.8946V15.557C136.255 15.0093 136.168 14.6441 135.996 14.4615C135.853 14.2485 135.58 14.1115 135.177 14.0507L134.273 13.9137C133.899 13.8833 133.713 13.7159 133.713 13.4116C133.713 13.1681 133.942 13.0008 134.402 12.9095C135.292 12.7573 136.011 12.5139 136.556 12.1791C137.102 11.8444 137.633 11.4335 138.151 10.9466C138.409 10.6727 138.624 10.5358 138.797 10.5358C139.055 10.5358 139.185 10.7184 139.185 11.0836V30.8946C139.185 31.5336 139.271 31.9901 139.443 32.264C139.616 32.5379 139.946 32.7053 140.434 32.7661L141.511 32.9031C141.827 32.9639 141.985 33.1313 141.985 33.4052C141.985 33.7704 141.77 33.953 141.339 33.953H134.143Z" fill="black"/>
<path d="M101.77 33.9532C101.315 33.9532 101.087 33.7832 101.087 33.4433C101.087 33.1651 101.284 32.9797 101.679 32.887L102.225 32.7942C102.862 32.6706 103.272 32.4852 103.454 32.2379C103.667 31.9598 103.773 31.4962 103.773 30.8471V15.2704C103.773 14.7141 103.682 14.3432 103.5 14.1578C103.348 13.9414 103.06 13.8023 102.635 13.7405L101.679 13.6014C101.284 13.5705 101.087 13.4005 101.087 13.0915C101.087 12.8442 101.33 12.6743 101.815 12.5815C102.756 12.427 103.469 12.1798 103.955 11.8398C104.471 11.4998 105.002 11.0826 105.548 10.5881C105.822 10.3099 106.049 10.1708 106.231 10.1708C106.504 10.1708 106.641 10.3563 106.641 10.7272V12.8133C106.641 13.0297 106.732 13.1997 106.914 13.3233C107.096 13.416 107.294 13.3542 107.506 13.1378C108.75 11.9325 109.828 11.1135 110.738 10.6808C111.679 10.2481 112.62 10.0318 113.561 10.0318C114.441 10.0318 115.215 10.279 115.883 10.7735C116.581 11.2371 117.097 11.948 117.431 12.9061C117.522 13.1533 117.673 13.3078 117.886 13.3696C118.129 13.4006 118.356 13.3078 118.569 13.0915C119.813 11.917 120.891 11.1135 121.801 10.6808C122.712 10.2481 123.637 10.0318 124.578 10.0318C125.853 10.0318 126.885 10.5263 127.674 11.5153C128.493 12.4734 128.903 13.8951 128.903 15.7803V30.8471C128.903 31.4962 128.994 31.9598 129.176 32.2379C129.389 32.4852 129.814 32.6552 130.451 32.7479L131.453 32.887C131.786 32.9488 131.953 33.1342 131.953 33.4433C131.953 33.7832 131.771 33.9532 131.407 33.9532H123.622C123.197 33.9532 122.985 33.7832 122.985 33.4433C122.985 33.1342 123.152 32.9488 123.486 32.887L124.123 32.7942C124.821 32.7015 125.276 32.5161 125.489 32.2379C125.701 31.9598 125.807 31.4962 125.807 30.8471V16.2903C125.807 14.7759 125.534 13.7096 124.988 13.0915C124.472 12.4734 123.759 12.1643 122.848 12.1643C121.938 12.1643 121.103 12.4579 120.344 13.0451C119.616 13.6014 119.024 14.3586 118.569 15.3167C118.114 16.2439 117.886 17.2793 117.886 18.4228V30.8471C117.886 31.4962 117.992 31.9598 118.205 32.2379C118.417 32.4852 118.857 32.6552 119.525 32.7479L120.526 32.887C120.86 32.9488 121.027 33.1342 121.027 33.4433C121.027 33.7832 120.845 33.9532 120.481 33.9532H112.741C112.317 33.9532 112.104 33.7832 112.104 33.4433C112.104 33.1342 112.271 32.9488 112.605 32.887L113.242 32.7942C113.88 32.7015 114.289 32.5161 114.471 32.2379C114.684 31.9598 114.79 31.4962 114.79 30.8471V16.2903C114.79 14.7759 114.517 13.7096 113.971 13.0915C113.455 12.4734 112.741 12.1643 111.831 12.1643C110.92 12.1643 110.086 12.4579 109.327 13.0451C108.599 13.6014 108.007 14.3586 107.552 15.3167C107.096 16.2439 106.869 17.2793 106.869 18.4228V30.8471C106.869 31.4962 106.96 31.9598 107.142 32.2379C107.354 32.5161 107.779 32.6861 108.417 32.7479L109.646 32.887C109.98 32.9488 110.147 33.1188 110.147 33.3969C110.147 33.7678 109.919 33.9532 109.464 33.9532H101.77Z" fill="black"/>
<path d="M87.4647 33.9531C86.7135 33.9531 85.9923 33.7895 85.3012 33.4624C84.61 33.1353 84.0391 32.6149 83.5884 31.9012C83.1376 31.1876 82.9123 30.236 82.9123 29.0465V13.5241C82.9123 12.9889 82.8221 12.6172 82.6418 12.409C82.4916 12.2009 82.2061 12.0819 81.7854 12.0522L81.0192 11.963C80.5083 11.9035 80.2529 11.7102 80.2529 11.3831C80.2529 10.9965 80.5384 10.8033 81.1093 10.8033H85.3012C85.7519 10.8033 85.9773 11.0263 85.9773 11.4723V28.1098C85.9773 29.4777 86.2327 30.459 86.7435 31.0538C87.2844 31.6187 88.0206 31.9012 88.9521 31.9012C89.8837 31.9012 90.71 31.6485 91.4312 31.143C92.1524 30.6077 92.7233 29.9089 93.144 29.0465C93.5947 28.1545 93.8201 27.188 93.8201 26.1472V13.5241C93.8201 12.9889 93.7299 12.6172 93.5496 12.409C93.3994 12.2009 93.1139 12.0819 92.6932 12.0522L91.927 11.963C91.4162 11.9035 91.1607 11.7102 91.1607 11.3831C91.1607 10.9965 91.4462 10.8033 92.0171 10.8033H96.209C96.6597 10.8033 96.8851 11.0263 96.8851 11.4723V28.7789C96.8851 29.3142 96.9602 29.6859 97.1105 29.894C97.2907 30.0725 97.5912 30.1914 98.0119 30.2509L98.9585 30.3847C99.3491 30.4144 99.5444 30.5631 99.5444 30.8307C99.5444 31.0984 99.304 31.2768 98.8233 31.366C97.8917 31.4849 97.1405 31.7228 96.5696 32.0797C96.0287 32.4365 95.5479 32.8677 95.1272 33.3732C94.8568 33.6408 94.6314 33.7746 94.4511 33.7746C94.1807 33.7746 94.0454 33.5962 94.0454 33.2394V31.1876C94.0454 30.9497 93.9553 30.8159 93.775 30.7861C93.6248 30.7267 93.4595 30.7861 93.2792 30.9645C92.1674 32.0648 91.1758 32.8379 90.3043 33.284C89.463 33.73 88.5164 33.9531 87.4647 33.9531Z" fill="black"/>
<path d="M70.1641 43.2128C67.7977 43.2128 65.9295 42.742 64.5594 41.8005C63.1894 40.8893 62.5044 39.7807 62.5044 38.4746C62.5044 37.9279 62.5822 37.4268 62.7379 36.9712C62.8936 36.546 63.2205 36.0448 63.7187 35.4677C64.2481 34.8906 65.0421 34.1465 66.1007 33.2353C66.4744 32.9012 66.6612 32.5975 66.6612 32.3241C66.6612 32.0204 66.4744 31.7926 66.1007 31.6408C64.9798 31.1852 64.3103 30.6081 64.0924 29.9095C63.8744 29.1806 64.1391 28.5124 64.8864 27.9049L68.2492 25.0802C68.6228 24.7765 68.6073 24.5183 68.2025 24.3057C66.9259 23.6983 65.9139 22.7567 65.1666 21.481C64.4193 20.2054 64.0457 18.8386 64.0457 17.3807C64.0457 15.9836 64.3571 14.7231 64.9798 13.5993C65.6025 12.4755 66.4432 11.5795 67.5019 10.9113C68.5606 10.2431 69.7438 9.90898 71.0515 9.90898C71.7988 9.90898 72.515 10.0305 73.2 10.2735C73.6359 10.4253 73.9006 10.2886 73.994 9.86343C74.2742 8.70926 74.788 7.81326 75.5353 7.17543C76.3137 6.50722 77.0766 6.17312 77.8239 6.17312C78.54 6.17312 79.1161 6.38573 79.552 6.81095C80.019 7.2058 80.2526 7.70695 80.2526 8.31441C80.2526 8.83075 80.0969 9.24078 79.7855 9.54451C79.4741 9.84824 79.0849 10.0001 78.6179 10.0001C78.2131 10.0001 77.9173 9.92417 77.7305 9.77231C77.5436 9.62044 77.3724 9.46858 77.2167 9.31671C77.061 9.16485 76.8119 9.08892 76.4694 9.08892C75.7221 9.08892 75.2551 9.48376 75.0682 10.2735C74.9748 10.5772 74.9748 10.8354 75.0682 11.048C75.1928 11.2606 75.364 11.4732 75.582 11.6858C76.3293 12.3844 76.9053 13.2348 77.3101 14.2371C77.746 15.2394 77.964 16.348 77.964 17.5629C77.964 19.0208 77.6526 20.3269 77.0299 21.481C76.4383 22.6352 75.6131 23.5464 74.5545 24.2146C73.5269 24.8828 72.3593 25.2169 71.0515 25.2169C70.4911 25.2169 70.0084 25.3384 69.6037 25.5814C69.1989 25.794 68.7941 26.1129 68.3893 26.5381L67.5953 27.4037C67.1905 27.8897 67.066 28.3605 67.2217 28.8161C67.4085 29.2413 67.8444 29.4539 68.5294 29.4539H72.5461C74.788 29.4539 76.5628 30.0006 77.8706 31.094C79.1783 32.1571 79.8322 33.6302 79.8322 35.5133C79.8322 37.0016 79.3963 38.3228 78.5245 39.477C77.6526 40.6311 76.485 41.5423 75.0215 42.2105C73.5892 42.8787 71.9701 43.2128 70.1641 43.2128ZM71.0048 24.0779C72.1258 24.0779 73.0132 23.4856 73.6671 22.3011C74.3209 21.1166 74.6479 19.5068 74.6479 17.4718C74.6479 15.4976 74.3054 13.9182 73.6204 12.7337C72.9665 11.5187 72.0946 10.9113 71.0048 10.9113C69.915 10.9113 69.0276 11.5187 68.3426 12.7337C67.6887 13.9182 67.3618 15.4976 67.3618 17.4718C67.3618 19.5068 67.6887 21.1166 68.3426 22.3011C68.9965 23.4856 69.8839 24.0779 71.0048 24.0779ZM70.7246 42.2105C71.8455 42.2105 72.8731 41.9675 73.8072 41.4816C74.7413 40.9956 75.473 40.3122 76.0023 39.4314C76.5628 38.581 76.8431 37.609 76.8431 36.5156C76.8431 35.1488 76.4227 34.101 75.582 33.372C74.7724 32.6127 73.6204 32.233 72.1258 32.233H71.0515C70.0863 32.233 69.3546 32.3241 68.8564 32.5064C68.3893 32.6886 67.9378 33.0075 67.5019 33.4631C66.5367 34.4654 65.9295 35.2703 65.6804 35.8778C65.4313 36.4852 65.3067 37.1079 65.3067 37.7457C65.3067 39.0821 65.7738 40.1603 66.7079 40.9804C67.6732 41.8005 69.0121 42.2105 70.7246 42.2105Z" fill="black"/>
<path d="M49.1697 33.9531C48.3884 33.9531 47.6384 33.7895 46.9196 33.4624C46.2008 33.1353 45.6071 32.6149 45.1383 31.9012C44.6695 31.1876 44.4352 30.236 44.4352 29.0465V13.5241C44.4352 12.9889 44.3414 12.6172 44.1539 12.409C43.9976 12.2009 43.7008 12.0819 43.2632 12.0522L42.4663 11.963C41.9351 11.9035 41.6694 11.7102 41.6694 11.3831C41.6694 10.9965 41.9663 10.8033 42.5601 10.8033H46.9196C47.3884 10.8033 47.6228 11.0263 47.6228 11.4723V28.1098C47.6228 29.4777 47.8884 30.459 48.4197 31.0538C48.9822 31.6187 49.7478 31.9012 50.7166 31.9012C51.6854 31.9012 52.5448 31.6485 53.2948 31.143C54.0448 30.6077 54.6386 29.9089 55.0761 29.0465C55.5449 28.1545 55.7793 27.188 55.7793 26.1472V13.5241C55.7793 12.9889 55.6855 12.6172 55.498 12.409C55.3418 12.2009 55.0449 12.0819 54.6074 12.0522L53.8105 11.963C53.2792 11.9035 53.0136 11.7102 53.0136 11.3831C53.0136 10.9965 53.3104 10.8033 53.9042 10.8033H58.2637C58.7325 10.8033 58.9669 11.0263 58.9669 11.4723V28.7789C58.9669 29.3142 59.045 29.6859 59.2013 29.894C59.3888 30.0725 59.7013 30.1914 60.1388 30.2509L61.1232 30.3847C61.5295 30.4144 61.7326 30.5631 61.7326 30.8307C61.7326 31.0984 61.4826 31.2768 60.9826 31.366C60.0138 31.4849 59.2325 31.7228 58.6387 32.0797C58.0762 32.4365 57.5762 32.8677 57.1387 33.3732C56.8574 33.6408 56.6231 33.7746 56.4355 33.7746C56.1543 33.7746 56.0137 33.5962 56.0137 33.2394V31.1876C56.0137 30.9497 55.9199 30.8159 55.7324 30.7861C55.5761 30.7267 55.4043 30.7861 55.2168 30.9645C54.0605 32.0648 53.0292 32.8379 52.1229 33.284C51.2479 33.73 50.2635 33.9531 49.1697 33.9531Z" fill="black"/>
<path d="M11.3897 33.9529C9.10559 33.9529 7.09927 33.2644 5.37075 31.8875C3.6731 30.5105 2.34585 28.5798 1.38899 26.0953C0.462996 23.5809 0 20.6175 0 17.2051C0 13.9124 0.509296 11.0387 1.52789 8.58418C2.57734 6.09969 3.96633 4.18394 5.69485 2.83693C7.45424 1.45998 9.39882 0.771512 11.5286 0.771512C12.7941 0.771512 13.9053 0.891246 14.8622 1.13071C15.819 1.34025 16.6679 1.62462 17.4087 1.98382C17.7791 2.19336 17.9642 2.50766 17.9642 2.92673L18.1031 9.75159C18.1031 10.2605 17.9179 10.5149 17.5476 10.5149C17.208 10.5149 16.992 10.3203 16.8994 9.93119L16.4364 8.26988C15.7882 5.93506 15.0319 4.31864 14.1677 3.42064C13.3343 2.52263 12.3311 2.07362 11.1582 2.07362C8.99756 2.07362 7.19187 3.37573 5.74115 5.97996C4.3213 8.55425 3.61137 12.2959 3.61137 17.2051C3.61137 20.5576 3.96633 23.3863 4.67626 25.6912C5.41705 27.9961 6.35848 29.7323 7.50054 30.8997C8.67346 32.0671 9.90812 32.6508 11.2045 32.6508C12.5935 32.6508 13.7047 32.2317 14.5381 31.3936C15.4023 30.5554 16.1277 28.939 16.7142 26.5443L17.2698 24.3442C17.3624 23.8952 17.6093 23.7006 18.0105 23.7605C18.3501 23.8204 18.5198 24.0748 18.5198 24.5238L18.3346 31.7977C18.3346 32.2167 18.134 32.5311 17.7327 32.7406C16.992 33.0998 16.1123 33.3842 15.0937 33.5937C14.1059 33.8332 12.8713 33.9529 11.3897 33.9529Z" fill="black"/>
<path d="M21.3767 33.9531C21.0152 33.9531 20.8345 33.7848 20.8345 33.4484C20.8345 33.1425 21.0002 32.959 21.3315 32.8978L21.9642 32.806C22.5968 32.7142 23.0035 32.5307 23.1842 32.2554C23.3951 31.9801 23.5005 31.5213 23.5005 30.8789V4.58828C23.5005 4.03768 23.4102 3.67063 23.2294 3.4871C23.0788 3.27298 22.7926 3.13533 22.3708 3.07415L21.4219 2.9365C21.0905 2.87533 20.9248 2.6918 20.9248 2.38592C20.9248 2.08003 21.0905 1.8965 21.4219 1.83533C22.2654 1.6518 22.9733 1.43768 23.5457 1.19297C24.1181 0.948264 24.6001 0.703557 24.9917 0.458852C25.4737 0.152969 25.8352 2.76715e-05 26.0762 2.76715e-05C26.4076 2.76715e-05 26.5733 0.244734 26.5733 0.734146V12.893C26.5733 13.1683 26.6636 13.3365 26.8444 13.3977C27.0251 13.4283 27.2511 13.3212 27.5222 13.0765C28.6669 12.0059 29.6761 11.2718 30.5497 10.8742C31.4234 10.4765 32.3422 10.2777 33.3062 10.2777C34.722 10.2777 35.8367 10.7671 36.65 11.7459C37.4634 12.6942 37.8701 14.1012 37.8701 15.9671V30.8789C37.8701 31.5213 37.9605 31.9801 38.1412 32.2554C38.3521 32.5001 38.7738 32.6684 39.4065 32.7601L40.4006 32.8978C40.732 32.959 40.8976 33.1425 40.8976 33.4484C40.8976 33.7848 40.7169 33.9531 40.3554 33.9531H32.7639C32.3422 33.9531 32.1313 33.7848 32.1313 33.4484C32.1313 33.1425 32.297 32.959 32.6284 32.8978L33.261 32.806C33.8936 32.7142 34.3003 32.5307 34.481 32.2554C34.6919 31.9801 34.7974 31.5213 34.7974 30.8789V16.4718C34.7974 14.973 34.5262 13.9177 33.984 13.3059C33.4417 12.6942 32.6735 12.3883 31.6794 12.3883C30.7154 12.3883 29.8418 12.6789 29.0586 13.2601C28.3054 13.8107 27.7029 14.5601 27.2511 15.5083C26.7992 16.426 26.5733 17.4507 26.5733 18.5824V30.8789C26.5733 31.5213 26.6636 31.9801 26.8444 32.2554C27.0553 32.5307 27.477 32.6989 28.1096 32.7601L29.3297 32.8978C29.6611 32.959 29.8267 33.1425 29.8267 33.4484C29.8267 33.7848 29.646 33.9531 29.2845 33.9531H21.3767Z" fill="black"/>
</svg>
