<svg width="96" height="35" viewBox="0 0 96 35" fill="none" xmlns="http://www.w3.org/2000/svg">
<path d="M88.6687 34.303C86.9981 34.303 85.5016 33.8145 84.1791 32.8375C82.8566 31.8604 81.7951 30.4865 80.9947 28.7156C80.229 26.9142 79.8462 24.838 79.8462 22.487C79.8462 20.0749 80.2464 17.9529 81.0469 16.121C81.8473 14.2891 82.9436 12.854 84.3357 11.8159C85.7278 10.7778 87.2766 10.2588 88.9819 10.2588C91.0352 10.2588 92.6884 11.0068 93.9413 12.5029C95.229 13.9685 95.8728 16.3653 95.8728 19.6933C95.8728 20.7009 95.4378 21.2046 94.5677 21.2046H84.649C83.9529 21.2046 83.6049 21.5558 83.6049 22.258C83.6049 25.4944 84.1443 27.9217 85.2232 29.54C86.3021 31.1582 87.6768 31.9673 89.3473 31.9673C90.6698 31.9673 91.7487 31.5551 92.584 30.7307C93.4192 29.9064 94.0979 28.5171 94.6199 26.5631C94.7243 26.2272 94.9505 26.0593 95.2986 26.0593C95.7162 26.0593 95.8728 26.3646 95.7684 26.9752C95.2116 29.6926 94.3241 31.6009 93.106 32.7001C91.8879 33.7687 90.4088 34.303 88.6687 34.303ZM84.4923 20.0597H89.7649C91.4355 20.0597 92.2707 19.2964 92.2707 17.7697C92.2707 15.7851 91.9923 14.228 91.4355 13.0983C90.8786 11.9686 90.0434 11.4038 88.9297 11.4038C87.5724 11.4038 86.4239 12.0907 85.4842 13.4647C84.5794 14.8386 83.9877 16.7927 83.7093 19.3269C83.6397 19.8154 83.9007 20.0597 84.4923 20.0597Z" fill="black"/>
<path d="M64.2358 34.3031C62.7045 34.3031 61.3298 33.8451 60.1117 32.9291C58.9284 31.9826 58.0062 30.685 57.3449 29.0363C56.6837 27.357 56.353 25.4182 56.353 23.2198C56.353 20.6551 56.8055 18.411 57.7103 16.4875C58.6152 14.5334 59.8681 13.0068 61.469 11.9076C63.0699 10.8084 64.8797 10.2589 66.8982 10.2589C67.3855 10.2589 67.8727 10.3047 68.3599 10.3963C68.8472 10.4573 69.317 10.5795 69.7694 10.7627C70.3263 11.0069 70.6047 10.9 70.6047 10.4421V4.57985C70.6047 4.03027 70.5003 3.64861 70.2915 3.43489C70.1175 3.22116 69.7868 3.09903 69.2996 3.0685L67.9423 2.9311C67.5595 2.87004 67.3681 2.68685 67.3681 2.38152C67.3681 2.0762 67.5595 1.893 67.9423 1.83194C69.056 1.64875 69.9435 1.43502 70.6047 1.19076C71.3008 0.946501 71.875 0.702242 72.3274 0.457985C72.8843 0.152662 73.3019 0 73.5803 0C73.9632 0 74.1546 0.244258 74.1546 0.732775V29.54C74.1546 30.8224 74.52 31.4636 75.2509 31.4636C75.7033 31.4636 76.1209 31.2041 76.5038 30.685C76.8866 30.1354 77.078 29.2195 77.078 27.9371C77.078 27.4486 77.3042 27.2043 77.7567 27.2043C78.1743 27.2043 78.3831 27.4638 78.3831 27.9829C78.3831 30.2118 77.9481 31.83 77.078 32.8375C76.2079 33.8146 75.2161 34.3031 74.1024 34.3031C73.0931 34.3031 72.3274 34.013 71.8054 33.4329C71.2834 32.8223 70.9353 32.1048 70.7613 31.2804C70.7265 31.0361 70.6047 30.914 70.3959 30.914C70.1871 30.8835 69.9957 30.9903 69.8216 31.2346C68.8472 32.4254 67.9597 33.2345 67.1592 33.6619C66.3588 34.0894 65.3843 34.3031 64.2358 34.3031ZM65.3843 32.1964C66.2892 32.1964 67.1244 31.9368 67.8901 31.4178C68.6906 30.8682 69.3344 30.1354 69.8216 29.2195C70.3437 28.3035 70.6047 27.2807 70.6047 26.151V15.8463C70.6047 14.4723 70.2393 13.3884 69.5084 12.5946C68.8124 11.8008 67.8901 11.4038 66.7416 11.4038C64.7927 11.4038 63.2091 12.4114 61.9911 14.4265C60.8078 16.4111 60.2161 19.1285 60.2161 22.5787C60.2161 25.7235 60.6686 28.1203 61.5734 29.769C62.5131 31.3873 63.7834 32.1964 65.3843 32.1964Z" fill="black"/>
<path d="M44.0744 34.303C42.2995 34.303 40.6986 33.784 39.2717 32.7459C37.8796 31.6772 36.7659 30.2269 35.9306 28.395C35.0954 26.5631 34.6777 24.5174 34.6777 22.258C34.6777 19.9986 35.0954 17.9682 35.9306 16.1668C36.7659 14.3654 37.897 12.9304 39.3239 11.8617C40.7508 10.7931 42.3343 10.2588 44.0744 10.2588C45.8494 10.2588 47.4329 10.7931 48.825 11.8617C50.2519 12.9304 51.383 14.3654 52.2183 16.1668C53.0535 17.9682 53.4712 19.9986 53.4712 22.258C53.4712 24.5174 53.0535 26.5631 52.2183 28.395C51.4178 30.2269 50.3041 31.6772 48.8772 32.7459C47.4503 33.784 45.8494 34.303 44.0744 34.303ZM44.0744 33.158C47.6939 33.158 49.5037 29.5247 49.5037 22.258C49.5037 15.0218 47.6939 11.4038 44.0744 11.4038C40.455 11.4038 38.6452 15.0218 38.6452 22.258C38.6452 29.5247 40.455 33.158 44.0744 33.158Z" fill="black"/>
<path d="M15.7134 33.4327C15.5742 33.4327 15.4176 33.3869 15.2436 33.2953C15.0695 33.2037 14.9477 33.0053 14.8781 32.6999L6.99533 4.62545C6.96053 4.41173 6.85612 4.32013 6.68211 4.35066C6.50809 4.35066 6.42109 4.45752 6.42109 4.67125L5.37701 29.952C5.3422 30.8069 5.49882 31.4634 5.84684 31.9214C6.19487 32.3488 6.80392 32.6236 7.67398 32.7457L8.35263 32.8373C8.80507 32.8679 9.03128 33.0511 9.03128 33.3869C9.03128 33.7228 8.77026 33.8907 8.24822 33.8907H0.783059C0.26102 33.8907 0 33.7228 0 33.3869C0 33.0511 0.226217 32.8679 0.678651 32.8373L1.3573 32.7457C2.26217 32.6236 2.87122 32.3488 3.18444 31.9214C3.53247 31.4634 3.72388 30.8069 3.75868 29.952L4.80276 3.93847C4.83757 3.29729 4.73316 2.86984 4.48954 2.65611C4.24592 2.44239 3.72388 2.27446 2.92342 2.15233L1.72273 1.96914C1.2703 1.87754 1.04408 1.69435 1.04408 1.41955C1.04408 1.0837 1.3051 0.915771 1.82714 0.915771H8.09161C9.17049 0.915771 9.83174 1.37376 10.0754 2.28973L16.392 25.1432C16.4616 25.3569 16.5661 25.4638 16.7053 25.4638C16.8793 25.4638 16.9837 25.3569 17.0185 25.1432L23.5962 2.06073C23.805 1.29743 24.3618 0.915771 25.2667 0.915771H31.4268C31.9488 0.915771 32.2098 1.0837 32.2098 1.41955C32.2098 1.69435 31.9836 1.87754 31.5312 1.96914L30.3305 2.15233C29.5996 2.27446 29.1124 2.44239 28.8688 2.65611C28.6252 2.86984 28.5208 3.29729 28.5556 3.93847L29.5996 30.868C29.6344 31.5092 29.7563 31.9366 29.9651 32.1504C30.1739 32.3641 30.6437 32.532 31.3746 32.6541L32.5753 32.8373C33.0277 32.9289 33.2539 33.1121 33.2539 33.3869C33.2539 33.7228 32.9929 33.8907 32.4709 33.8907H23.0219C22.4999 33.8907 22.2389 33.7228 22.2389 33.3869C22.2389 33.1121 22.4651 32.9289 22.9175 32.8373L24.1182 32.6541C24.8491 32.532 25.3363 32.3641 25.5799 32.1504C25.8236 31.9366 25.928 31.5092 25.8932 30.868L25.0057 4.67125C25.0057 4.45752 24.9187 4.35066 24.7447 4.35066C24.6055 4.32013 24.5011 4.39646 24.4314 4.57965L16.4964 32.6999C16.4268 33.0053 16.305 33.2037 16.131 33.2953C15.9918 33.3869 15.8526 33.4327 15.7134 33.4327Z" fill="black"/>
</svg>
