<svg width="66" height="35" viewBox="0 0 66 35" fill="none" xmlns="http://www.w3.org/2000/svg">
<path d="M55.2978 34.1478C53.6933 34.1478 52.4067 33.5272 51.438 32.286C50.4692 31.0146 49.9849 29.2285 49.9849 26.9277C49.9849 24.9297 50.333 22.9468 51.0293 20.9791C51.7558 19.0113 52.6943 17.2252 53.8447 15.6208C54.995 14.0163 56.2514 12.7297 57.6137 11.761C59.0062 10.7922 60.3534 10.3079 61.6551 10.3079C63.0779 10.3079 64.0921 10.656 64.6975 11.3523C65.3333 12.0183 65.6511 12.9265 65.6511 14.0768C65.6511 15.4391 65.1668 16.8014 64.198 18.1637C63.2596 19.4957 61.9275 20.6915 60.202 21.751C58.5067 22.8106 56.5087 23.5977 54.2079 24.1123C53.5419 24.2637 53.1938 24.6421 53.1635 25.2476C53.1333 25.4595 53.1181 25.6865 53.1181 25.9287C53.1181 26.1406 53.1181 26.3525 53.1181 26.5644C53.1181 28.29 53.4057 29.5917 53.9809 30.4697C54.5864 31.3476 55.4037 31.7865 56.433 31.7865C57.5834 31.7865 58.6883 31.2567 59.7479 30.1972C60.8377 29.1376 61.7459 27.6391 62.4725 25.7017C62.5633 25.4292 62.7449 25.293 63.0174 25.293C63.199 25.293 63.305 25.3687 63.3352 25.52C63.3958 25.6714 63.3958 25.853 63.3352 26.0649C62.3665 28.729 61.1859 30.7421 59.7933 32.1044C58.431 33.4667 56.9325 34.1478 55.2978 34.1478ZM53.6176 22.3868C53.5571 22.5987 53.5873 22.7803 53.7084 22.9317C53.8598 23.0528 54.0414 23.0831 54.2533 23.0225C56.1303 22.5079 57.7045 21.7359 58.9759 20.7066C60.2474 19.6471 61.201 18.4664 61.8367 17.1647C62.5027 15.8629 62.8357 14.5915 62.8357 13.3503C62.8357 12.0788 62.3362 11.4431 61.3372 11.4431C60.4593 11.4431 59.5057 11.9577 58.4764 12.987C57.4471 14.0163 56.4936 15.3634 55.6156 17.0285C54.7377 18.6935 54.0717 20.4796 53.6176 22.3868Z" fill="black"/>
<path d="M36.0592 34.1479C35.0299 34.1479 34.1066 33.8754 33.2892 33.3305C32.5021 32.7553 31.9421 31.9077 31.6091 30.7876C31.3063 29.6372 31.3517 28.2144 31.7453 26.5191L36.8311 4.67717C36.9825 4.13226 36.9825 3.75385 36.8311 3.54194C36.71 3.33002 36.4376 3.20893 36.0138 3.17866L34.6515 3.04243C34.1974 3.01216 34.0006 2.81539 34.0612 2.45211C34.1217 2.17965 34.3336 2.01315 34.6969 1.95261C35.7867 1.77097 36.7555 1.55906 37.6031 1.31687C38.4507 1.04442 39.1319 0.696277 39.6465 0.272456C39.8887 0.0908186 40.1158 0 40.3277 0C40.6909 0 40.8272 0.227047 40.7364 0.681141L36.6041 18.5271C36.5738 18.739 36.6192 18.8601 36.7403 18.8903C36.8614 18.9206 36.9674 18.8449 37.0582 18.6633C38.7232 15.4846 40.2066 13.305 41.5083 12.1243C42.8403 10.9134 44.0815 10.3079 45.2319 10.3079C46.352 10.3079 47.2299 10.7772 47.8656 11.7156C48.5316 12.6541 48.8646 14.0315 48.8646 15.8479C48.8646 17.5735 48.6073 19.3141 48.0927 21.07C47.6083 22.7955 46.9272 24.4454 46.0493 26.0196C45.2016 27.5938 44.2177 28.9864 43.0976 30.1973C42.0078 31.4082 40.8574 32.3769 39.6465 33.1035C38.4356 33.7998 37.2398 34.1479 36.0592 34.1479ZM36.1954 33.0127C36.9825 33.0127 37.815 32.6645 38.6929 31.9682C39.5708 31.2417 40.4185 30.2881 41.2359 29.1075C42.0835 27.8965 42.8403 26.5494 43.5063 25.066C44.1723 23.5524 44.7021 22.0084 45.0957 20.4342C45.4892 18.8298 45.686 17.2859 45.686 15.8025C45.686 14.6521 45.5649 13.8499 45.3227 13.3958C45.0805 12.9114 44.6567 12.6692 44.0512 12.6692C43.3852 12.6692 42.6284 13.0779 41.7808 13.8953C40.9331 14.7127 40.0703 15.8025 39.1924 17.1648C38.3145 18.4968 37.4971 19.9499 36.7403 21.5241C35.9835 23.0983 35.378 24.6573 34.9239 26.2012C34.4698 27.7149 34.2428 29.062 34.2428 30.2427C34.2428 32.0893 34.8937 33.0127 36.1954 33.0127Z" fill="black"/>
<path d="M26.0649 6.26653C25.4897 6.26653 25.0053 6.06975 24.6118 5.6762C24.2485 5.25238 24.0669 4.75288 24.0669 4.17769C24.0669 3.36032 24.309 2.70945 24.7934 2.22509C25.3081 1.74072 25.8832 1.49854 26.519 1.49854C27.1244 1.49854 27.6239 1.69531 28.0175 2.08886C28.4413 2.45213 28.6532 2.9365 28.6532 3.54196C28.6532 4.3896 28.3959 5.05561 27.8813 5.53997C27.3666 6.02434 26.7612 6.26653 26.0649 6.26653ZM22.3413 34.1933C21.3423 34.1933 20.6309 33.8301 20.2071 33.1035C19.7832 32.3467 19.7681 31.1206 20.1616 29.4253L23.5219 15.0305C23.6733 14.3645 23.6884 13.8499 23.5674 13.4866C23.4765 13.0931 23.2041 12.8963 22.75 12.8963C22.2051 12.8963 21.5996 13.305 20.9336 14.1224C20.2979 14.9095 19.5713 16.4231 18.754 18.6633C18.6329 19.0569 18.421 19.2536 18.1182 19.2536C17.6641 19.2536 17.543 18.9812 17.7549 18.4363C18.421 16.3474 19.1172 14.7127 19.8438 13.532C20.6006 12.3514 21.3574 11.5189 22.1143 11.0345C22.8711 10.5501 23.5674 10.308 24.2031 10.308C25.2626 10.308 26.0043 10.6864 26.4282 11.4432C26.852 12.1698 26.8671 13.3807 26.4736 15.076L23.1133 29.4707C22.9619 30.1368 22.9316 30.6665 23.0224 31.0601C23.1435 31.4234 23.4311 31.605 23.8852 31.605C24.4301 31.605 25.0205 31.2114 25.6562 30.4243C26.3222 29.607 27.0639 28.0782 27.8813 25.838C28.0023 25.4444 28.2143 25.2477 28.517 25.2477C28.9711 25.2477 29.0922 25.5201 28.8803 26.065C28.2445 28.1236 27.5331 29.7583 26.746 30.9693C25.9892 32.1499 25.2324 32.9824 24.4755 33.4668C23.7187 33.9511 23.0073 34.1933 22.3413 34.1933Z" fill="black"/>
<path d="M3.63276 34.1933C3.51166 34.1933 3.39057 34.1479 3.26948 34.0571C3.14839 33.9663 3.08784 33.7695 3.08784 33.4668L2.58834 4.67719C2.55806 3.82955 2.45211 3.23922 2.27047 2.90622C2.08883 2.57322 1.71042 2.34617 1.13524 2.22508L0.544913 2.08885C0.181638 1.99803 0 1.81639 0 1.54394C0 1.21093 0.25732 1.04443 0.77196 1.04443H8.26452C8.65807 1.04443 8.85484 1.1958 8.85484 1.49853C8.85484 1.83153 8.55211 2.0283 7.94665 2.08885L7.03846 2.17967C6.52382 2.20994 6.16055 2.37644 5.94864 2.67917C5.767 2.95163 5.67618 3.42086 5.67618 4.08686L5.90323 25.5655C5.90323 25.8683 5.99405 26.0348 6.17568 26.065C6.35732 26.0953 6.50869 25.9894 6.62978 25.7472L16.5744 5.04046C17.4221 3.31491 17.1496 2.36131 15.7571 2.17967L15.1213 2.08885C14.6672 1.99803 14.4402 1.81639 14.4402 1.54394C14.4402 1.21093 14.6975 1.04443 15.2122 1.04443H21.7965C22.1598 1.04443 22.3414 1.1958 22.3414 1.49853C22.3414 1.77098 22.0993 1.96776 21.6149 2.08885L20.8883 2.22508C20.2829 2.34617 19.7682 2.6489 19.3444 3.13327C18.9206 3.58736 18.4968 4.23823 18.073 5.08587L4.49553 33.4668C4.37444 33.7695 4.22308 33.9663 4.04144 34.0571C3.89007 34.1479 3.75385 34.1933 3.63276 34.1933Z" fill="black"/>
</svg>
