<svg width="101" height="34" viewBox="0 0 101 34" fill="none" xmlns="http://www.w3.org/2000/svg">
<path d="M79.5655 32.8002L83.9729 14.2891C84.1275 13.6086 84.143 13.0828 84.0193 12.7117C83.9265 12.3096 83.6481 12.1086 83.1842 12.1086C82.6275 12.1086 82.0089 12.5261 81.3284 13.3612C80.6789 14.1653 79.9366 15.7118 79.1015 18.0006C78.9778 18.4026 78.7613 18.6037 78.452 18.6037C77.9881 18.6037 77.8644 18.3253 78.0809 17.7686C78.7613 15.6345 79.4727 13.9643 80.215 12.7581C80.9882 11.5518 81.7614 10.7013 82.5347 10.2064C83.3079 9.71155 84.0193 9.46411 84.6688 9.46411C85.6894 9.46411 86.4163 9.85072 86.8493 10.624C87.2823 11.3663 87.2978 12.6034 86.8957 14.3355L85.7358 19.346C85.7049 19.5625 85.7513 19.6862 85.875 19.7171C85.9987 19.7481 86.107 19.6707 86.1998 19.4852C87.406 16.9799 88.5659 15.0004 89.6793 13.5468C90.7928 12.0622 91.8444 11.0106 92.8341 10.392C93.8238 9.7734 94.7208 9.46411 95.5249 9.46411C96.6693 9.46411 97.5044 9.92805 98.0302 10.8559C98.556 11.7838 98.556 13.2065 98.0302 15.1242L94.5043 28.5784C94.2878 29.4444 94.2723 30.0939 94.4579 30.5269C94.6435 30.9599 94.9837 31.1764 95.4785 31.1764C96.0971 31.1764 96.7002 30.7743 97.2879 29.9702C97.9065 29.1351 98.5405 27.5732 99.19 25.2844C99.2828 24.9442 99.4839 24.7741 99.7932 24.7741C100.041 24.7741 100.18 24.8668 100.211 25.0524C100.273 25.238 100.273 25.4545 100.211 25.7019C99.6231 27.8051 98.989 29.4598 98.3086 30.6661C97.6281 31.8414 96.9322 32.661 96.2208 33.1249C95.5404 33.5889 94.8445 33.8208 94.1331 33.8208C93.0197 33.8208 92.1846 33.3569 91.6279 32.429C91.0711 31.5012 91.0402 30.063 91.5351 28.1144L95.1074 14.6602C95.4476 13.454 95.494 12.6189 95.2466 12.1549C95.0301 11.691 94.7053 11.459 94.2723 11.459C93.5919 11.459 92.8186 11.8921 91.9526 12.7581C91.0866 13.5932 90.2051 14.753 89.3082 16.2376C88.4112 17.6913 87.5297 19.346 86.6637 21.2017C85.7977 23.0575 85.009 24.9906 84.2976 27.001C83.6172 29.0114 83.0605 30.9754 82.6275 32.893C82.5347 33.2332 82.3182 33.4033 81.9779 33.4033H80.0758C79.6428 33.4033 79.4727 33.2023 79.5655 32.8002Z" fill="black"/>
<path d="M65.041 33.8208C63.1234 33.8208 61.6078 33.0322 60.4944 31.4548C59.3809 29.8464 58.8242 27.6814 58.8242 24.9596C58.8242 22.9492 59.149 21.0162 59.7985 19.1604C60.448 17.3047 61.2986 15.6499 62.3501 14.1963C63.4327 12.7426 64.6234 11.5982 65.9225 10.7631C67.2524 9.89712 68.5824 9.46411 69.9123 9.46411C71.8299 9.46411 73.3455 10.2528 74.4589 11.8302C75.5724 13.4076 76.1291 15.5726 76.1291 18.3253C76.1291 20.3357 75.8043 22.2688 75.1548 24.1245C74.5053 25.9803 73.6393 27.635 72.5568 29.0887C71.5052 30.5424 70.3144 31.7022 68.9845 32.5682C67.6854 33.4033 66.3709 33.8208 65.041 33.8208ZM64.9482 32.7074C65.9379 32.7074 66.8967 32.228 67.8246 31.2692C68.7834 30.3104 69.6494 29.0423 70.4227 27.4649C71.1959 25.8875 71.8145 24.14 72.2784 22.2224C72.7424 20.2739 72.9743 18.3253 72.9743 16.3768C72.9743 12.5106 71.9691 10.5776 69.9587 10.5776C68.9999 10.5776 68.0411 11.057 67.0823 12.0158C66.1235 12.9436 65.2575 14.1963 64.4843 15.7737C63.742 17.3511 63.1388 19.114 62.6749 21.0626C62.211 22.9802 61.979 24.9132 61.979 26.8618C61.979 30.7589 62.9687 32.7074 64.9482 32.7074Z" fill="black"/>
<path d="M53.9952 5.33522C53.4076 5.33522 52.9127 5.13418 52.5106 4.7321C52.1395 4.29909 51.9539 3.78876 51.9539 3.2011C51.9539 2.36601 52.2014 1.70104 52.6962 1.20617C53.222 0.711301 53.8097 0.463867 54.4592 0.463867C55.0778 0.463867 55.5881 0.664907 55.9902 1.06699C56.4232 1.43814 56.6397 1.933 56.6397 2.55159C56.6397 3.41761 56.3768 4.09805 55.851 4.59291C55.3252 5.08778 54.7066 5.33522 53.9952 5.33522ZM50.191 33.8674C49.1703 33.8674 48.4435 33.4962 48.0105 32.7539C47.5774 31.9807 47.562 30.7281 47.9641 28.996L51.3972 14.2892C51.5518 13.6088 51.5673 13.083 51.4436 12.7118C51.3508 12.3097 51.0724 12.1087 50.6085 12.1087C50.0518 12.1087 49.4332 12.5263 48.7527 13.3613C48.1032 14.1655 47.3609 15.712 46.5258 18.0007C46.4021 18.4028 46.1856 18.6038 45.8763 18.6038C45.4124 18.6038 45.2887 18.3255 45.5052 17.7687C46.1856 15.6346 46.897 13.9645 47.6393 12.7582C48.4125 11.552 49.1858 10.7014 49.959 10.2066C50.7322 9.7117 51.4436 9.46426 52.0931 9.46426C53.1756 9.46426 53.9334 9.85087 54.3664 10.6241C54.7994 11.3664 54.8149 12.6036 54.4128 14.3356L50.9797 29.0424C50.825 29.7229 50.7941 30.2641 50.8869 30.6662C51.0106 31.0374 51.3044 31.2229 51.7683 31.2229C52.3251 31.2229 52.9282 30.8209 53.5777 30.0167C54.2581 29.1816 55.0159 27.6197 55.851 25.3309C55.9747 24.9289 56.1912 24.7278 56.5005 24.7278C56.9645 24.7278 57.0882 25.0062 56.8717 25.5629C56.2222 27.6661 55.4953 29.3363 54.6912 30.5734C53.9179 31.7797 53.1447 32.6302 52.3715 33.1251C51.5982 33.62 50.8714 33.8674 50.191 33.8674Z" fill="black"/>
<path d="M35.913 33.8208C34.8923 33.8208 33.8098 33.6662 32.6654 33.3569C31.552 33.0476 30.7014 32.661 30.1138 32.1971C29.8972 32.0115 29.8045 31.7331 29.8354 31.362L30.8561 25.2844C30.9179 24.8823 31.1035 24.6813 31.4128 24.6813C31.753 24.6813 31.9231 24.8978 31.9231 25.3308L32.0159 27.5577C32.0778 29.3207 32.4953 30.6197 33.2685 31.4548C34.0727 32.2589 35.047 32.661 36.1913 32.661C37.1811 32.661 38.0316 32.3517 38.743 31.7331C39.4544 31.0836 39.8101 30.1403 39.8101 28.9031C39.8101 28.1917 39.7018 27.5422 39.4853 26.9546C39.2688 26.336 38.9286 25.6865 38.4646 25.006C38.0007 24.2947 37.3666 23.4441 36.5625 22.4544C35.5109 21.0935 34.7222 19.9336 34.1964 18.9748C33.7015 17.9851 33.4541 16.9644 33.4541 15.9128C33.4541 13.9643 34.0572 12.4024 35.2635 11.2271C36.5006 10.0518 38.0626 9.46411 39.9492 9.46411C40.7843 9.46411 41.5885 9.58783 42.3617 9.83526C43.1659 10.0827 43.8308 10.4538 44.3566 10.9487C44.635 11.1652 44.7278 11.4436 44.635 11.7838L43.336 18.0006C43.2432 18.4026 43.0576 18.6037 42.7793 18.6037C42.5009 18.6037 42.3308 18.3872 42.2689 17.9542L42.1297 15.7273C42.006 13.8715 41.7586 12.5416 41.3874 11.7374C41.0472 10.9332 40.3204 10.5312 39.2069 10.5312C38.2172 10.5312 37.413 10.8714 36.7945 11.5518C36.1759 12.2323 35.8666 13.0519 35.8666 14.0107C35.8666 15.0314 36.1449 15.9747 36.7017 16.8407C37.2584 17.6758 38.0162 18.7429 38.975 20.0419C40.2431 21.7121 41.0936 23.042 41.5266 24.0318C41.9906 25.0215 42.2225 26.0267 42.2225 27.0474C42.2225 28.3464 41.9287 29.5062 41.3411 30.5269C40.7843 31.5476 40.0266 32.3517 39.0678 32.9394C38.1089 33.527 37.0574 33.8208 35.913 33.8208Z" fill="black"/>
<path d="M26.6305 5.33522C26.0428 5.33522 25.548 5.13418 25.1459 4.7321C24.7748 4.29909 24.5892 3.78876 24.5892 3.2011C24.5892 2.36601 24.8366 1.70104 25.3315 1.20617C25.8573 0.711301 26.4449 0.463867 27.0944 0.463867C27.713 0.463867 28.2234 0.664907 28.6254 1.06699C29.0584 1.43814 29.275 1.933 29.275 2.55159C29.275 3.41761 29.0121 4.09805 28.4863 4.59291C27.9605 5.08778 27.3419 5.33522 26.6305 5.33522ZM22.8262 33.8674C21.8055 33.8674 21.0787 33.4962 20.6457 32.7539C20.2127 31.9807 20.1972 30.7281 20.5993 28.996L24.0325 14.2892C24.1871 13.6088 24.2026 13.083 24.0788 12.7118C23.9861 12.3097 23.7077 12.1087 23.2438 12.1087C22.687 12.1087 22.0684 12.5263 21.388 13.3613C20.7385 14.1655 19.9962 15.712 19.1611 18.0007C19.0374 18.4028 18.8209 18.6038 18.5116 18.6038C18.0477 18.6038 17.9239 18.3255 18.1404 17.7687C18.8209 15.6346 19.5323 13.9645 20.2746 12.7582C21.0478 11.552 21.821 10.7014 22.5942 10.2066C23.3675 9.7117 24.0788 9.46426 24.7284 9.46426C25.8109 9.46426 26.5686 9.85087 27.0017 10.6241C27.4347 11.3664 27.4501 12.6036 27.048 14.3356L23.6149 29.0424C23.4603 29.7229 23.4293 30.2641 23.5221 30.6662C23.6458 31.0374 23.9397 31.2229 24.4036 31.2229C24.9603 31.2229 25.5634 30.8209 26.213 30.0167C26.8934 29.1816 27.6512 27.6197 28.4863 25.3309C28.61 24.9289 28.8265 24.7278 29.1358 24.7278C29.5997 24.7278 29.7234 25.0062 29.5069 25.5629C28.8574 27.6661 28.1306 29.3363 27.3264 30.5734C26.5532 31.7797 25.78 32.6302 25.0067 33.1251C24.2335 33.62 23.5067 33.8674 22.8262 33.8674Z" fill="black"/>
<path d="M3.7115 33.8675C3.58779 33.8675 3.46407 33.8211 3.34035 33.7283C3.21664 33.6355 3.15478 33.4345 3.15478 33.1252L2.64445 3.7115C2.61352 2.84548 2.50526 2.24237 2.31969 1.90215C2.13411 1.56192 1.7475 1.32995 1.15984 1.20624L0.556725 1.06706C0.185575 0.974269 0 0.788693 0 0.510331C0 0.17011 0.262898 0 0.788694 0H8.44367C8.84575 0 9.04679 0.154646 9.04679 0.463937C9.04679 0.804158 8.7375 1.0052 8.11891 1.06706L7.19104 1.15984C6.66524 1.19077 6.29409 1.36089 6.07759 1.67018C5.89201 1.94854 5.79922 2.42794 5.79922 3.10838L6.03119 25.0526C6.03119 25.3619 6.12398 25.532 6.30956 25.563C6.49513 25.5939 6.64978 25.4857 6.77349 25.2382L16.9337 4.08265C17.7998 2.31969 17.5214 1.34542 16.0986 1.15984L15.4491 1.06706C14.9852 0.974269 14.7532 0.788693 14.7532 0.510331C14.7532 0.17011 15.0161 0 15.5419 0H22.269C22.6402 0 22.8257 0.154646 22.8257 0.463937C22.8257 0.7423 22.5783 0.94334 22.0834 1.06706L21.3411 1.20624C20.7226 1.32995 20.1968 1.63925 19.7638 2.13411C19.3307 2.59805 18.8977 3.26303 18.4647 4.12905L4.59299 33.1252C4.46927 33.4345 4.31462 33.6355 4.12905 33.7283C3.9744 33.8211 3.83522 33.8675 3.7115 33.8675Z" fill="black"/>
</svg>
